<?xml version="1.0" encoding="UTF-8"?> <svg xmlns="http://www.w3.org/2000/svg" viewBox="0 0 571.22 207.72"><defs><style>.cls-1{fill:none;}.cls-2{fill:#2a5caa;}.cls-3{fill:#33a3dc;}.cls-4{fill:#063342;}</style></defs><title>logo-gidef-couleur</title><g id="Layer_2" data-name="Layer 2"><g id="fondos"><rect class="cls-1" width="571.22" height="207.72"></rect></g><g id="logo-gidef"><polygon class="cls-2" points="27.14 86.98 15.36 98.75 15.34 98.77 15.34 133.99 50.57 98.75 62.35 86.98 27.14 86.98"></polygon><polygon class="cls-3" points="15.36 98.75 50.57 98.75 62.35 86.98 27.14 86.98 15.36 98.75"></polygon><polygon class="cls-2" points="74.07 98.75 74.06 98.75 15.34 157.47 15.34 192.75 74.07 134.02 74.07 98.75"></polygon><polygon class="cls-2" points="74.07 98.75 74.07 98.75 74.06 98.75 74.07 98.75"></polygon><polygon class="cls-2" points="44.75 69.36 76.74 69.36 91.74 69.36 91.74 84.36 91.74 98.75 91.74 116.35 109.33 98.75 109.35 98.74 109.35 4.76 44.75 69.36"></polygon><path class="cls-4" d="M382.75,111.71c-3.33-6.75-9.06-12.43-17-16.86s-18.52-6.63-31.52-6.63H299.54v94.45h40.14a57,57,0,0,0,11.53-1.2l.12,0c12.81-3.43,22.2-9.62,27.89-18.41A54.35,54.35,0,0,0,387.68,133,47.71,47.71,0,0,0,382.75,111.71ZM365.89,135a35.72,35.72,0,0,1-1.14,9.53,20.46,20.46,0,0,1-2.65,6.16l-.14.22c-3,5.55-7.09,9-12.5,10.63A69,69,0,0,1,330,164h-9V107h13.55c10.34,0,18.25,2.39,23.52,7.1S365.89,125.78,365.89,135Z"></path><polygon class="cls-4" points="475.15 107.03 475.15 88.22 407.79 88.22 407.79 182.67 475.15 182.67 475.15 164.03 429.24 164.03 429.24 144.35 469.92 144.35 469.92 125.39 429.24 125.39 429.24 107.03 475.15 107.03"></polygon><polygon class="cls-4" points="557.99 107.03 557.99 88.22 498.59 88.22 498.59 182.67 520.03 182.67 520.03 148.63 548.14 148.63 548.14 129.5 520.03 129.5 520.03 107.03 557.99 107.03"></polygon><polygon class="cls-2" points="271.56 102.15 271.56 88.22 250.11 88.22 250.11 123.59 271.56 102.15"></polygon><polygon class="cls-4" points="271.56 182.67 271.56 115.28 250.11 136.73 250.11 182.67 271.56 182.67"></polygon><path class="cls-4" d="M179.17,144.59h23.54v16.95a26.13,26.13,0,0,1-5.42,2,37.7,37.7,0,0,1-8.65.81,35.7,35.7,0,0,1-17.38-4.19,30.8,30.8,0,0,1-11.92-11.51A32.11,32.11,0,0,1,155,132.12a29.07,29.07,0,0,1,15.93-26.62,33.54,33.54,0,0,1,15.43-3.69,44.94,44.94,0,0,1,12.41,1.75,57.92,57.92,0,0,1,9.3,3.52l14.41-14.41-3.6-2.06a65.36,65.36,0,0,0-33-8.84c-10.71,0-20.15,2.39-28.08,7.1a47.87,47.87,0,0,0-18.18,18.8,52.78,52.78,0,0,0-6.19,25.07,55.29,55.29,0,0,0,5.81,24.66,48.2,48.2,0,0,0,17.71,19.43c7.88,5,17.61,7.57,28.93,7.57,15.84,0,28.36-4,37.23-11.8l.73-.65V125.06H198.69Z"></path></g></g></svg> 